<?xml version="1.0" encoding="UTF-8" standalone="no"?>
<!-- Created with Inkscape (http://www.inkscape.org/) -->

<svg
   xmlns:dc="http://purl.org/dc/elements/1.1/"
   xmlns:cc="http://creativecommons.org/ns#"
   xmlns:rdf="http://www.w3.org/1999/02/22-rdf-syntax-ns#"
   xmlns:svg="http://www.w3.org/2000/svg"
   xmlns="http://www.w3.org/2000/svg"
   xmlns:sodipodi="http://sodipodi.sourceforge.net/DTD/sodipodi-0.dtd"
   xmlns:inkscape="http://www.inkscape.org/namespaces/inkscape"
   width="600"
   height="400"
   id="svg2"
   version="1.1"
   inkscape:version="0.48.4 r9939"
   sodipodi:docname="point.svg"
   inkscape:export-filename="/home/roberto/Dropbox/container/public/apps/demo-red-garden/point.png"
   inkscape:export-xdpi="90"
   inkscape:export-ydpi="90">
  <defs
     id="defs4" />
  <sodipodi:namedview
     id="base"
     pagecolor="#ffffff"
     bordercolor="#666666"
     borderopacity="1.0"
     inkscape:pageopacity="0.0"
     inkscape:pageshadow="2"
     inkscape:zoom="0.49497475"
     inkscape:cx="145.57849"
     inkscape:cy="448.05614"
     inkscape:document-units="px"
     inkscape:current-layer="layer1"
     showgrid="false"
     inkscape:window-width="1366"
     inkscape:window-height="692"
     inkscape:window-x="1280"
     inkscape:window-y="24"
     inkscape:window-maximized="1" />
  <metadata
     id="metadata7">
    <rdf:RDF>
      <cc:Work
         rdf:about="">
        <dc:format>image/svg+xml</dc:format>
        <dc:type
           rdf:resource="http://purl.org/dc/dcmitype/StillImage" />
        <dc:title></dc:title>
      </cc:Work>
    </rdf:RDF>
  </metadata>
  <g
     inkscape:label="Layer 1"
     inkscape:groupmode="layer"
     id="layer1"
     transform="translate(0,-652.36218)">
    <g
       id="g3828"
       transform="translate(10.093333,4.9895296)">
      <path
         inkscape:export-ydpi="90"
         inkscape:export-xdpi="90"
         inkscape:export-filename="/home/roberto/Dropbox/container/public/apps/demo-red-garden/point.png"
         transform="matrix(0.90679365,0,0,0.58543086,85.645135,584.21853)"
         inkscape:transform-center-x="68.770187"
         d="M 380.2491,712.21851 291.0829,641.89559 260.28068,751.1986 207.42621,650.68826 134.82945,738.01314 127.42572,624.69452 25.587048,674.942 64.914244,568.40893 -48.557507,572.89077 30.70058,491.56377 -74.783951,449.50502 30.700583,407.44628 -48.557494,326.11927 64.914253,330.60113 25.58707,224.06805 l 101.83866,50.24749 7.40374,-113.31862 72.59676,87.32489 52.85448,-100.51034 30.8022,109.30302 89.16622,-70.32291 -16.31833,112.38166 110.06029,-27.97601 -60.61727,96.02849 111.92394,19.2082 -94.43494,63.07112 94.43494,63.07114 -111.92395,19.20819 60.61726,96.02849 -110.06028,-27.97601 z"
         inkscape:randomized="0"
         inkscape:rounded="0"
         inkscape:flatsided="false"
         sodipodi:arg2="1.2566371"
         sodipodi:arg1="1.0471976"
         sodipodi:r2="202.2914"
         sodipodi:r1="303.35538"
         sodipodi:cy="449.50504"
         sodipodi:cx="228.57143"
         sodipodi:sides="15"
         id="path2985"
         style="opacity:0.97000002;fill:#ffffff;fill-opacity:1;stroke:#f68f27;stroke-width:23.11672783;stroke-miterlimit:4;stroke-opacity:1;stroke-dasharray:none"
         sodipodi:type="star" />
      <text
         inkscape:export-ydpi="90"
         inkscape:export-xdpi="90"
         inkscape:export-filename="/home/roberto/Dropbox/container/public/apps/demo-red-garden/point.png"
         sodipodi:linespacing="125%"
         id="text2987"
         y="869.10858"
         x="122.67989"
         style="font-size:115.76853943px;font-style:normal;font-weight:normal;line-height:125%;letter-spacing:0px;word-spacing:0px;fill:#1b148c;fill-opacity:1;stroke:none;font-family:Sans"
         xml:space="preserve"><tspan
           style="font-size:98.85189056px;font-style:normal;font-variant:normal;font-weight:normal;font-stretch:normal;fill:#1b148c;fill-opacity:1;stroke:none;font-family:From Cartoon Blocks;-inkscape-font-specification:From Cartoon Blocks"
           y="869.10858"
           x="122.67989"
           id="tspan2989"
           sodipodi:role="line">+<tspan
   id="tspan3789"
   style="font-size:74.13892365px;fill:#1b148c;fill-opacity:1">1</tspan> Point</tspan></text>
      <path
         inkscape:export-ydpi="90"
         inkscape:export-xdpi="90"
         inkscape:export-filename="/home/roberto/Dropbox/container/public/apps/demo-red-garden/point.png"
         inkscape:connector-curvature="0"
         id="path3807"
         d="m 297.36805,991.89684 -23.39537,-28.72452 -32.36602,25.16678 c -19.11897,14.8664 -32.46606,24.6577 -32.61043,23.9228 -0.13442,-0.6844 -1.64616,-15.17201 -3.35942,-32.19497 -1.71326,-17.02291 -3.3006,-31.13633 -3.52741,-31.36314 -0.2268,-0.22681 -20.32322,5.94094 -44.65869,13.70612 -24.33546,7.7652 -44.40894,13.96446 -44.60773,13.77613 -0.19879,-0.18824 7.31842,-13.79037 16.70491,-30.22696 9.38649,-16.43658 16.92868,-30.02236 16.76043,-30.19061 -0.16826,-0.16825 -22.27895,0.28955 -49.134887,1.01736 -26.855929,0.7278 -49.00295,1.14929 -49.215599,0.93664 -0.21265,-0.21264 15.169,-10.67833 34.181442,-23.25708 19.902784,-13.16781 34.019044,-23.06636 33.273924,-23.33224 -0.71178,-0.25398 -20.63859,-5.41983 -44.281792,-11.47968 -23.643201,-6.05985 -43.810807,-11.37493 -44.8169,-11.81129 -1.662869,-0.72123 -1.579674,-0.85778 0.914631,-1.50132 1.509139,-0.38937 22.294121,-5.7247 46.188846,-11.85631 L 116.86294,823.33618 83.746837,801.31495 c -18.213856,-12.11169 -33.85061,-22.4323 -34.748344,-22.9347 -0.897734,-0.5024 -1.429879,-1.0999 -1.182546,-1.32779 0.247333,-0.2279 22.414101,0.17384 49.25949,0.89276 26.845383,0.71891 48.973813,1.14308 49.174293,0.9426 0.20048,-0.20047 -7.31535,-13.81262 -16.70184,-30.2492 -9.38649,-16.43658 -16.9037,-30.01807 -16.70491,-30.18108 0.19879,-0.16302 20.25156,6.05698 44.56172,13.82221 24.31015,7.76521 44.40656,13.9123 44.65869,13.66018 0.25212,-0.25212 1.86016,-14.38626 3.57342,-31.40918 1.71326,-17.02293 3.225,-31.46056 3.35942,-32.08363 0.13442,-0.62306 14.80612,10.16822 32.60376,23.98063 l 32.35937,25.11347 4.68317,-5.729 c 2.57575,-3.15095 13.11737,-16.08575 23.42582,-28.74399 10.30846,-12.65826 19.03918,-22.71846 19.40163,-22.35601 0.36244,0.36244 6.48723,14.0303 13.61065,30.37303 7.12342,16.34271 13.27617,30.06861 13.6728,30.50199 0.39661,0.43338 18.27878,-8.14666 39.73814,-19.06674 21.45937,-10.92009 39.16793,-19.7038 39.35235,-19.51938 0.18443,0.18442 -2.87247,14.62952 -6.79309,32.10022 -3.92063,17.4707 -6.82907,31.76492 -6.46318,31.76492 0.36587,0 21.97304,-3.50913 48.01592,-7.79806 26.04289,-4.28894 47.49494,-7.65382 47.67125,-7.47752 0.1763,0.1763 -11.62172,12.50777 -26.21782,27.40327 l -26.53835,27.08271 3.90927,0.54662 c 2.15012,0.30065 24.017,2.77127 48.59309,5.49026 24.57609,2.71901 44.84438,5.10422 45.04064,5.30047 0.19625,0.19627 -17.64774,8.09458 -39.65334,17.5518 -22.00559,9.45724 -40.55848,17.48635 -41.22866,17.84246 -0.72654,0.38605 15.4432,7.81666 40.04965,18.40432 35.22856,15.15813 40.895,17.85386 38.71836,18.41971 -1.40239,0.36458 -21.68845,2.73939 -45.08013,5.27736 -23.39167,2.53797 -44.27156,4.85761 -46.39974,5.15477 l -3.86942,0.54027 26.46628,27.10907 c 14.55645,14.90999 26.14616,27.22183 25.75488,27.35962 -0.39126,0.1378 -22.0472,-3.26044 -48.12432,-7.55167 -26.07712,-4.29121 -47.4963,-7.69663 -47.59818,-7.56758 -0.10188,0.12904 3.02283,14.42804 6.94381,31.77555 3.92098,17.34746 6.98378,31.68616 6.80623,31.86372 -0.35376,0.35375 -28.2629,-13.5564 -58.84611,-29.32932 -10.72901,-5.5334 -19.82757,-9.70183 -20.21905,-9.2632 -0.39147,0.43864 -6.63601,14.4759 -13.87673,31.19391 -7.24075,16.718 -13.38476,30.4032 -13.65338,30.4115 -0.2686,0.01 -11.0163,-12.911 -23.88375,-28.70946 l 0,0 z M 405.1034,867.69846 c 4.27212,-5.81979 5.10023,-11.59649 4.27017,-29.7879 l -0.55359,-12.13218 -5.1254,-1.43022 c -2.81897,-0.78662 -5.81082,-1.62047 -6.64855,-1.85299 -0.91758,-0.25469 -3.01981,1.00098 -5.28766,3.15833 l -3.76451,3.5811 -2.31372,-3.94808 c -2.08302,-3.55439 -2.81119,-4.05135 -7.30238,-4.98371 -4.95899,-1.02948 -5.01537,-1.01602 -9.4817,2.26256 -2.87365,2.10945 -4.67743,4.19421 -5.0046,5.78416 -1.02789,4.99529 -2.08469,28.25877 -1.54638,34.04072 l 0.5535,5.9451 6.299,0.45732 c 5.53988,0.40219 6.68006,0.1983 9.4608,-1.6919 l 3.16178,-2.14922 2.42941,2.88767 c 1.85266,2.20215 3.51506,3.06681 7.00256,3.64225 9.50902,1.56898 10.02625,1.42771 13.85127,-3.78301 l 0,0 z m -53.42372,-0.5064 4.26107,-4.34449 0.27771,-17.75159 0.2777,-17.75159 -5.56043,-3.05279 -5.56043,-3.05279 -5.3008,2.87104 -5.30079,2.87104 0.76773,6.95777 c 0.42226,3.82677 0.79791,11.90826 0.8348,17.95885 0.0494,8.12356 0.41688,11.47964 1.40451,12.83065 1.67336,2.28911 7.41918,6.78468 8.68885,6.79825 0.52197,0.005 2.86649,-1.94487 5.21008,-4.33435 l 0,0 z m 86.21861,2.16451 6.40242,-1.12085 0.25376,-12.98367 0.25377,-12.98367 4.46681,0 4.4668,0 0.3484,-5.71644 0.3484,-5.71644 -4.47253,-4.25383 c -5.27625,-5.01826 -7.07077,-5.42858 -18.92756,-4.32782 -4.77894,0.44367 -10.43729,0.8735 -12.5741,0.95519 -3.63513,0.13897 -3.94378,0.35968 -4.79672,3.43018 -0.50137,1.8049 -0.91389,5.40588 -0.91669,8.00215 -0.005,4.13546 0.3383,5.00947 2.76572,7.052 1.52395,1.28232 4.09634,2.58017 5.71643,2.88414 l 2.94563,0.55264 -0.10159,9.77334 -0.1016,9.77334 3.30281,2.95894 c 1.81654,1.62742 3.50858,2.93255 3.76011,2.9003 0.25153,-0.0323 3.3384,-0.56304 6.85973,-1.1795 z m -236.977,-1.70719 c 0.5785,-2.94324 3.30913,-36.19214 3.28631,-40.01509 -0.0169,-2.83192 -0.58911,-3.59687 -4.96024,-6.63107 -4.72348,-3.27879 -5.26954,-3.42986 -12.3968,-3.42986 -4.10063,0 -8.21006,0.40372 -9.13208,0.89718 -2.38104,1.27428 -10.09354,12.3411 -10.09354,14.4834 0,3.04766 5.67242,10.51762 8.55861,11.27073 1.43744,0.37508 3.42963,1.42055 4.4271,2.32325 1.74801,1.58192 1.86415,1.57556 3.21153,-0.17585 1.35499,-1.7613 1.38308,-1.74688 0.91459,0.46947 -0.26585,1.25761 -1.00072,5.2858 -1.63308,8.95153 l -1.14974,6.66495 3.53937,3.62465 c 3.38089,3.46234 3.79646,3.62463 9.28143,3.62463 5.22511,0 5.77846,-0.18526 6.14654,-2.05792 l 0,0 z m 116.81057,-0.4964 c 5.94169,-3.10399 10.27014,-8.51858 11.75382,-14.70329 1.50358,-6.26762 -0.43029,-12.75058 -6.02273,-20.19018 -5.72942,-7.62181 -9.55737,-10.113 -15.53953,-10.113 -13.89425,0 -23.22576,9.2351 -23.22576,22.9858 0,6.75285 1.00703,10.34145 3.68797,13.1421 0.96308,1.0061 3.09203,3.43263 4.73098,5.39228 3.80478,4.54927 7.12104,5.9602 14.11371,6.00481 4.41209,0.0282 6.65745,-0.51034 10.50154,-2.51852 z m -55.09125,-2.24667 c 1.53023,-1.28759 3.19586,-2.48335 3.70142,-2.65723 0.5808,-0.19975 0.18765,-4.55125 -1.06791,-11.81981 l -1.98711,-11.50365 4.9602,-4.73105 c 2.72812,-2.60205 5.26445,-4.73102 5.63631,-4.73102 1.35815,0 5.32635,-8.01418 5.32635,-10.75709 0,-3.57346 -3.66458,-8.03409 -7.57563,-9.22125 -1.61844,-0.49126 -6.35774,-1.12473 -10.53176,-1.40772 -6.74494,-0.45728 -8.22545,-0.25321 -13.30924,1.83455 -3.14605,1.29199 -6.69566,3.08495 -7.88804,3.98436 l -2.16797,1.63529 3.91221,23.65794 c 2.15172,13.01186 4.13603,24.83997 4.4096,26.28468 l 0.4974,2.62675 6.65097,-0.42683 c 5.42771,-0.34833 7.16269,-0.85741 9.4332,-2.76792 l 0,0 z M 145.44515,850.82484 c 1.38628,-0.86332 2.05791,-2.17023 2.05791,-4.00439 0,-2.50203 0.25958,-2.72281 3.20121,-2.72281 l 3.20121,0 0,-5.54629 0,-5.54629 -2.97255,0.28716 c -2.92595,0.28267 -2.97632,0.22265 -3.21376,-3.82867 -0.49118,-8.38142 -0.33603,-8.2276 -6.68536,-6.62819 l -5.57006,1.40309 0.62168,5.35644 0.62168,5.35644 -3.06236,0.014 c -4.85802,0.0223 -5.6804,0.98989 -4.95458,5.82997 0.62863,4.19207 0.65363,4.21696 4.23485,4.21696 3.56704,0 3.60248,0.0345 3.60248,3.50608 0,1.92836 0.25439,3.76047 0.5653,4.07137 0.81695,0.81696 5.94726,-0.26709 8.35235,-1.76488 l 0,0 z"
         style="opacity:0.97000002;fill:#6699ff;fill-opacity:1;stroke:#000000;stroke-width:4.20730114;stroke-miterlimit:4;stroke-opacity:1;stroke-dasharray:none" />
    </g>
  </g>
</svg>
