<?xml version="1.0" encoding="UTF-8" standalone="no"?>
<!-- Generator: Adobe Illustrator 16.0.0, SVG Export Plug-In . SVG Version: 6.00 Build 0)  -->

<svg
   xmlns:dc="http://purl.org/dc/elements/1.1/"
   xmlns:cc="http://creativecommons.org/ns#"
   xmlns:rdf="http://www.w3.org/1999/02/22-rdf-syntax-ns#"
   xmlns:svg="http://www.w3.org/2000/svg"
   xmlns="http://www.w3.org/2000/svg"
   xmlns:sodipodi="http://sodipodi.sourceforge.net/DTD/sodipodi-0.dtd"
   xmlns:inkscape="http://www.inkscape.org/namespaces/inkscape"
   version="1.1"
   id="Capa_1"
   x="0px"
   y="0px"
   width="100"
   height="100"
   viewBox="0 0 100 100"
   xml:space="preserve"
   inkscape:version="0.48.4 r9939"
   sodipodi:docname="thumbnail.svg"
   inkscape:export-filename="/home/roberto/Dropbox/container/public/apps/physical-garden/thumbnail.png"
   inkscape:export-xdpi="90"
   inkscape:export-ydpi="90"><metadata
     id="metadata39"><rdf:RDF><cc:Work
         rdf:about=""><dc:format>image/svg+xml</dc:format><dc:type
           rdf:resource="http://purl.org/dc/dcmitype/StillImage" /><dc:title /></cc:Work></rdf:RDF></metadata><defs
     id="defs37" /><sodipodi:namedview
     pagecolor="#ffffff"
     bordercolor="#666666"
     borderopacity="1"
     objecttolerance="10"
     gridtolerance="10"
     guidetolerance="10"
     inkscape:pageopacity="0"
     inkscape:pageshadow="2"
     inkscape:window-width="1366"
     inkscape:window-height="692"
     id="namedview35"
     showgrid="false"
     inkscape:zoom="2.4583333"
     inkscape:cx="-10.644068"
     inkscape:cy="64.271187"
     inkscape:window-x="1280"
     inkscape:window-y="24"
     inkscape:window-maximized="1"
     inkscape:current-layer="Capa_1" /><g
     id="g5"
     transform="translate(0,4)" /><g
     id="g7"
     transform="translate(0,4)" /><g
     id="g9"
     transform="translate(0,4)" /><g
     id="g11"
     transform="translate(0,4)" /><g
     id="g13"
     transform="translate(0,4)" /><g
     id="g15"
     transform="translate(0,4)" /><g
     id="g17"
     transform="translate(0,4)" /><g
     id="g19"
     transform="translate(0,4)" /><g
     id="g21"
     transform="translate(0,4)" /><g
     id="g23"
     transform="translate(0,4)" /><g
     id="g25"
     transform="translate(0,4)" /><g
     id="g27"
     transform="translate(0,4)" /><g
     id="g29"
     transform="translate(0,4)" /><g
     id="g31"
     transform="translate(0,4)" /><g
     id="g33"
     transform="translate(0,4)" /><g
     transform="matrix(1.2562714,0,0,1.2562714,-12.813569,-1206.4252)"
     id="layer1"><path
       style="color:#000000;fill:#000000;fill-opacity:1;fill-rule:nonzero;stroke:none;stroke-width:2;marker:none;visibility:visible;display:inline;overflow:visible;enable-background:accumulate"
       id="path6080-4"
       d="m 32.5,978.74266 c -1.054167,0 -1.25,2.33166 -1.25,4.16666 l 0,8.33333 c 0,8.46333 8.333332,12.76045 16.666666,12.49995 l 0,23.6194 C 43.75,1019.0287 31.25,1006.5287 18.749999,1010.6953 c 0,0 10.416667,25 31.250001,25 20.833334,0 31.25,-25 31.25,-25 -12.5,-4.1666 -25,8.3334 -29.166667,16.6667 l 0,-23.6194 C 60.416666,1004.001 68.75,999.70598 68.75,991.24265 l 0,-8.33333 c 0,-1.835 -0.195001,-4.16666 -1.25,-4.16666 -0.803833,0 -1.773416,0.94 -2.916667,2.08333 l -6.25,6.25 -6.25,-7.03125 c -0.652375,-0.73375 -1.029,-1.30208 -2.083334,-1.30208 -1.054375,0 -1.430958,0.56833 -2.083333,1.30208 l -6.25,7.03125 -6.25,-6.25 C 34.273416,979.68266 33.303832,978.74266 32.5,978.74266 z"
       inkscape:connector-curvature="0"
       sodipodi:nodetypes="ssscccscccssscccscccs" /></g><rect
     style="opacity:0.60493828000000005;fill:#007300;fill-opacity:1"
     id="rect3027"
     width="89.898308"
     height="34.169491"
     x="5.0508461"
     y="4.9152527"
     ry="8.5423727" /><flowRoot
     xml:space="preserve"
     id="flowRoot2997"
     style="font-size:11px;font-style:normal;font-weight:normal;line-height:125%;letter-spacing:0px;word-spacing:0px;fill:#ffffff;fill-opacity:1;stroke:none;font-family:Sans"
     transform="translate(61.21875,-27.457161)"><flowRegion
       id="flowRegion2999"><rect
         id="rect3001"
         width="108.20338"
         height="28.881355"
         x="-65.491524"
         y="35.728813"
         style="font-size:11px;fill:#ffffff;fill-opacity:1" /></flowRegion><flowPara
       id="flowPara3009"
       style="font-style:normal;font-variant:normal;font-weight:bold;font-stretch:normal;text-align:center;text-anchor:middle;fill:#ffffff;fill-opacity:1;font-family:DejaVu Sans;-inkscape-font-specification:DejaVu Sans Bold">Garden</flowPara><flowPara
       style="font-style:normal;font-variant:normal;font-weight:bold;font-stretch:normal;text-align:center;text-anchor:middle;fill:#ffffff;fill-opacity:1;font-family:DejaVu Sans;-inkscape-font-specification:DejaVu Sans Bold"
       id="flowPara3005">Demo</flowPara></flowRoot></svg>