<?xml version="1.0" encoding="UTF-8" standalone="no"?>
<!-- Generator: Adobe Illustrator 16.0.4, SVG Export Plug-In . SVG Version: 6.00 Build 0)  -->

<svg
   xmlns:dc="http://purl.org/dc/elements/1.1/"
   xmlns:cc="http://creativecommons.org/ns#"
   xmlns:rdf="http://www.w3.org/1999/02/22-rdf-syntax-ns#"
   xmlns:svg="http://www.w3.org/2000/svg"
   xmlns="http://www.w3.org/2000/svg"
   xmlns:sodipodi="http://sodipodi.sourceforge.net/DTD/sodipodi-0.dtd"
   xmlns:inkscape="http://www.inkscape.org/namespaces/inkscape"
   version="1.1"
   id="Capa_1"
   x="0px"
   y="0px"
   width="100"
   height="100"
   viewBox="0 0 99.999997 100"
   xml:space="preserve"
   inkscape:version="0.48.4 r9939"
   sodipodi:docname="thumbnail.svg"
   inkscape:export-filename="/home/roberto/Dropbox/container/public/apps/viz/thumbnail.png"
   inkscape:export-xdpi="90"
   inkscape:export-ydpi="90"><metadata
     id="metadata47"><rdf:RDF><cc:Work
         rdf:about=""><dc:format>image/svg+xml</dc:format><dc:type
           rdf:resource="http://purl.org/dc/dcmitype/StillImage" /><dc:title></dc:title></cc:Work></rdf:RDF></metadata><defs
     id="defs45" /><sodipodi:namedview
     pagecolor="#ffffff"
     bordercolor="#666666"
     borderopacity="1"
     objecttolerance="10"
     gridtolerance="10"
     guidetolerance="10"
     inkscape:pageopacity="0"
     inkscape:pageshadow="2"
     inkscape:window-width="1366"
     inkscape:window-height="692"
     id="namedview43"
     showgrid="false"
     inkscape:zoom="3.9430369"
     inkscape:cx="42.610382"
     inkscape:cy="61.091116"
     inkscape:window-x="0"
     inkscape:window-y="24"
     inkscape:window-maximized="1"
     inkscape:current-layer="Capa_1" /><g
     id="g3"
     transform="matrix(3.7796609,0,0,3.7796609,9.7403022,11.533609)"><path
       style="fill:none;stroke:#040001;stroke-width:1.72899103;stroke-miterlimit:2.61310005;stroke-opacity:1;stroke-dasharray:none"
       d="M 14.41,16.982 6.985,12.345 C 7.296,11.818 7.473,11.203 7.473,10.547 7.473,9.891 7.295,9.276 6.985,8.749 l 7.421,-4.636 c 0.095,1.803 1.535,3.25 3.335,3.354 v 6.226 c -1.779,0.104 -3.206,1.517 -3.331,3.289 z"
       id="path7"
       inkscape:connector-curvature="0" /><path
       sodipodi:type="arc"
       style="fill:#000000;fill-opacity:1;fill-rule:nonzero;stroke:none"
       id="path3792"
       sodipodi:cx="15.781084"
       sodipodi:cy="49.78746"
       sodipodi:rx="17.215729"
       sodipodi:ry="17.215729"
       d="m 32.996813,49.78746 c 0,9.507985 -7.707744,17.215729 -17.215729,17.215729 -9.5079844,0 -17.2157287,-7.707744 -17.2157287,-17.215729 0,-9.507984 7.7077443,-17.215728 17.2157287,-17.215728 9.507985,0 17.215729,7.707744 17.215729,17.215728 z"
       transform="matrix(0.264574,0,0,0.264574,-0.23723134,-2.7343064)" /><path
       sodipodi:type="arc"
       style="fill:#000000;fill-opacity:1;fill-rule:nonzero;stroke:none"
       id="path3792-3"
       sodipodi:cx="15.781084"
       sodipodi:cy="49.78746"
       sodipodi:rx="17.215729"
       sodipodi:ry="17.215729"
       d="m 32.996813,49.78746 c 0,9.507985 -7.707744,17.215729 -17.215729,17.215729 -9.5079844,0 -17.2157287,-7.707744 -17.2157287,-17.215729 0,-9.507984 7.7077443,-17.215728 17.2157287,-17.215728 9.507985,0 17.215729,7.707744 17.215729,17.215728 z"
       transform="matrix(0.264574,0,0,0.264574,13.142594,-9.2344343)" /><path
       sodipodi:type="arc"
       style="fill:#000000;fill-opacity:1;fill-rule:nonzero;stroke:none"
       id="path3792-0"
       sodipodi:cx="15.781084"
       sodipodi:cy="49.78746"
       sodipodi:rx="17.215729"
       sodipodi:ry="17.215729"
       d="m 32.996813,49.78746 c 0,9.507985 -7.707744,17.215729 -17.215729,17.215729 -9.5079844,0 -17.2157287,-7.707744 -17.2157287,-17.215729 0,-9.507984 7.7077443,-17.215728 17.2157287,-17.215728 9.507985,0 17.215729,7.707744 17.215729,17.215728 z"
       transform="matrix(0.264574,0,0,0.264574,13.19004,3.2439131)" /></g><g
     id="g13"
     transform="translate(0,78.839003)" /><g
     id="g15"
     transform="translate(0,78.839003)" /><g
     id="g17"
     transform="translate(0,78.839003)" /><g
     id="g19"
     transform="translate(0,78.839003)" /><g
     id="g21"
     transform="translate(0,78.839003)" /><g
     id="g23"
     transform="translate(0,78.839003)" /><g
     id="g25"
     transform="translate(0,78.839003)" /><g
     id="g27"
     transform="translate(0,78.839003)" /><g
     id="g29"
     transform="translate(0,78.839003)" /><g
     id="g31"
     transform="translate(0,78.839003)" /><g
     id="g33"
     transform="translate(0,78.839003)" /><g
     id="g35"
     transform="translate(0,78.839003)" /><g
     id="g37"
     transform="translate(0,78.839003)" /><g
     id="g39"
     transform="translate(0,78.839003)" /><g
     id="g41"
     transform="translate(0,78.839003)" /><rect
     style="opacity:0.60493828;fill:#007300;fill-opacity:1"
     id="rect3027"
     width="89.898308"
     height="34.169491"
     x="5.0508447"
     y="5.5539355"
     ry="8.5423727" /><flowRoot
     xml:space="preserve"
     id="flowRoot2997"
     style="font-size:11px;font-style:normal;font-weight:normal;line-height:125%;letter-spacing:0px;word-spacing:0px;fill:#ffffff;fill-opacity:1;stroke:none;font-family:Sans"
     transform="translate(61.259032,-27.930839)"><flowRegion
       id="flowRegion2999"><rect
         id="rect3001"
         width="108.20338"
         height="28.881355"
         x="-65.491524"
         y="35.728813"
         style="font-size:11px;fill:#ffffff;fill-opacity:1" /></flowRegion><flowPara
       style="font-style:normal;font-variant:normal;font-weight:bold;font-stretch:normal;text-align:center;text-anchor:middle;fill:#ffffff;fill-opacity:1;font-family:DejaVu Sans;-inkscape-font-specification:DejaVu Sans Bold"
       id="flowPara3025">Conversation</flowPara><flowPara
       style="font-style:normal;font-variant:normal;font-weight:bold;font-stretch:normal;text-align:center;text-anchor:middle;fill:#ffffff;fill-opacity:1;font-family:DejaVu Sans;-inkscape-font-specification:DejaVu Sans Bold"
       id="flowPara3016">Map</flowPara></flowRoot></svg>