<?xml version="1.0" encoding="UTF-8" standalone="no"?>
<!-- Generator: Adobe Illustrator 17.0.0, SVG Export Plug-In . SVG Version: 6.00 Build 0)  -->

<svg
   xmlns:dc="http://purl.org/dc/elements/1.1/"
   xmlns:cc="http://creativecommons.org/ns#"
   xmlns:rdf="http://www.w3.org/1999/02/22-rdf-syntax-ns#"
   xmlns:svg="http://www.w3.org/2000/svg"
   xmlns="http://www.w3.org/2000/svg"
   xmlns:sodipodi="http://sodipodi.sourceforge.net/DTD/sodipodi-0.dtd"
   xmlns:inkscape="http://www.inkscape.org/namespaces/inkscape"
   version="1.1"
   id="Capa_1"
   x="0px"
   y="0px"
   width="100"
   height="100"
   viewBox="0 0 100 100"
   enable-background="new 0 0 52 52"
   xml:space="preserve"
   inkscape:version="0.48.4 r9939"
   sodipodi:docname="thumbnail.svg"
   inkscape:export-filename="/home/roberto/Dropbox/container/public/apps/virtual-garden/thumbnail.png"
   inkscape:export-xdpi="90"
   inkscape:export-ydpi="90"><metadata
     id="metadata9"><rdf:RDF><cc:Work
         rdf:about=""><dc:format>image/svg+xml</dc:format><dc:type
           rdf:resource="http://purl.org/dc/dcmitype/StillImage" /><dc:title></dc:title></cc:Work></rdf:RDF></metadata><defs
     id="defs7" /><sodipodi:namedview
     pagecolor="#ffffff"
     bordercolor="#666666"
     borderopacity="1"
     objecttolerance="10"
     gridtolerance="10"
     guidetolerance="10"
     inkscape:pageopacity="0"
     inkscape:pageshadow="2"
     inkscape:window-width="1366"
     inkscape:window-height="692"
     id="namedview5"
     showgrid="false"
     inkscape:zoom="3.2091769"
     inkscape:cx="47.80976"
     inkscape:cy="50.92851"
     inkscape:window-x="0"
     inkscape:window-y="24"
     inkscape:window-maximized="1"
     inkscape:current-layer="Capa_1"
     showguides="true"
     inkscape:guide-bbox="true"><sodipodi:guide
       orientation="0,1"
       position="43.624893,89.431031"
       id="guide2999" /></sodipodi:namedview><path
     d="m 86.483023,9.8802329 c -0.858054,-0.05069 -1.562238,1.5314641 -1.649129,3.5281591 -0.255244,5.854318 -1.202,17.405463 -4.708436,23.956724 -0.943135,1.763174 -1.518792,3.61505 -0.888828,4.51474 0.629964,0.899689 0.75306,1.182087 0.334894,0.591948 -0.418165,-0.591948 -0.403683,-0.543072 0.04707,0.09775 l 0.814608,1.162175 c 0.208178,0.354807 0.401873,0.702373 0.582897,1.044509 0.309551,0.584707 0.05793,2.617608 -0.707804,4.464053 C 69.45409,75.362066 38.585867,77.094466 27.99777,76.888098 c -1.998505,-0.03802 -4.168984,-0.468852 -4.359059,-1.125969 -0.190075,-0.655307 1.629216,-1.017355 3.625912,-0.90331 30.873653,1.786707 45.120246,-22.160966 49.356209,-31.147 0.852624,-1.80843 1.589391,-3.102752 1.80119,-2.816734 0.211798,0.284208 0.209987,0.267915 -0.0054,-0.03802 -0.215419,-0.305931 -1.679903,-1.542325 -3.415924,-2.536147 -3.135337,-1.793949 -8.42305,-4.150882 -14.547093,-4.150882 -4.507499,0 -8.736221,1.27984 -12.568501,3.805126 -8.65476,5.700447 -18.104216,16.589045 -25.003043,24.539621 -3.794264,4.369921 -7.37673,8.50089 -9.011377,9.590655 0,0 -0.465232,0.309551 -1.039079,0.691512 -0.573846,0.38196 -0.671599,1.115108 -0.219039,1.634647 l 0.82185,0.943135 c 0.510487,0.586518 12.783919,14.605021 33.379026,14.605021 0.787454,0 1.58215,0.141199 2.237457,0.141199 h 0.275157 c 2.384087,0 23.513215,-0.582897 32.320035,-13.743346 3.977099,-5.9394 4.846014,-13.571374 2.637521,-22.593613 -0.476094,-1.942388 -0.794696,-5.094017 -0.561175,-7.079851 l 3.892017,-33.136454 c 0.235332,-1.985834 -0.273346,-3.6367731 -1.1314,-3.6874601 z M 82.629021,48.338794 c -0.07784,-0.204557 -0.07422,-0.208178 0.0018,-0.0018 0.07603,0.206367 0.07603,0.206367 -0.0018,0.0018 z"
     id="path3"
     inkscape:connector-curvature="0" /><rect
     style="opacity:0.60493828;fill:#007300;fill-opacity:1"
     id="rect3027"
     width="89.898308"
     height="34.169491"
     x="5.0508461"
     y="5.1186442"
     ry="8.5423727" /><flowRoot
     xml:space="preserve"
     id="flowRoot2997"
     style="font-size:11px;font-style:normal;font-weight:normal;line-height:125%;letter-spacing:0px;word-spacing:0px;fill:#ffffff;fill-opacity:1;stroke:none;font-family:Sans"
     transform="translate(61.259033,-21.25377)"><flowRegion
       id="flowRegion2999"><rect
         id="rect3001"
         width="108.20338"
         height="28.881355"
         x="-65.491524"
         y="35.728813"
         style="font-size:11px;fill:#ffffff;fill-opacity:1" /></flowRegion><flowPara
       style="font-style:normal;font-variant:normal;font-weight:bold;font-stretch:normal;text-align:center;text-anchor:middle;fill:#ffffff;fill-opacity:1;font-family:DejaVu Sans;-inkscape-font-specification:DejaVu Sans Bold"
       id="flowPara3025">Seedlings</flowPara></flowRoot></svg>