<?xml version="1.0" encoding="UTF-8" standalone="no"?>
<!-- Generator: Adobe Illustrator 16.0.0, SVG Export Plug-In . SVG Version: 6.00 Build 0)  -->

<svg
   xmlns:dc="http://purl.org/dc/elements/1.1/"
   xmlns:cc="http://creativecommons.org/ns#"
   xmlns:rdf="http://www.w3.org/1999/02/22-rdf-syntax-ns#"
   xmlns:svg="http://www.w3.org/2000/svg"
   xmlns="http://www.w3.org/2000/svg"
   xmlns:sodipodi="http://sodipodi.sourceforge.net/DTD/sodipodi-0.dtd"
   xmlns:inkscape="http://www.inkscape.org/namespaces/inkscape"
   version="1.1"
   id="Capa_1"
   x="0px"
   y="0px"
   width="100"
   height="100"
   viewBox="0 0 100 100"
   xml:space="preserve"
   inkscape:version="0.48.3.1 r9886"
   sodipodi:docname="Flaticon_3883.svg"><metadata
   id="metadata39"><rdf:RDF><cc:Work
       rdf:about=""><dc:format>image/svg+xml</dc:format><dc:type
         rdf:resource="http://purl.org/dc/dcmitype/StillImage" /></cc:Work></rdf:RDF></metadata><defs
   id="defs37" /><sodipodi:namedview
   pagecolor="#ffffff"
   bordercolor="#666666"
   borderopacity="1"
   objecttolerance="10"
   gridtolerance="10"
   guidetolerance="10"
   inkscape:pageopacity="0"
   inkscape:pageshadow="2"
   inkscape:window-width="1680"
   inkscape:window-height="974"
   id="namedview35"
   showgrid="false"
   inkscape:zoom="2.4583333"
   inkscape:cx="-20.40678"
   inkscape:cy="48"
   inkscape:window-x="0"
   inkscape:window-y="24"
   inkscape:window-maximized="1"
   inkscape:current-layer="Capa_1" />
<path
   d="m 51.015,2.803125 c -0.133,-1.071 -1.896,-1.071 -2.029,0 -4.416,35.541 -26.986,42.863 -26.986,67.564 0,15.26 12.816,27.633 28,27.633 15.184,0 28,-12.373 28,-27.633 0,-24.701 -22.57,-32.023 -26.985,-67.564 z m -4.264,39.287 c -0.297,1.095 -0.615,2.223 -0.942,3.386 -2.007,7.123 -4.281,15.195 -4.281,24.537 0,5.055 -2.988,6.854 -5.784,6.854 -3.189,0 -5.782,-2.616 -5.782,-5.831 0,-11.034 5.315,-18.243 10.005,-24.604 1.469,-1.991 2.855,-3.873 3.983,-5.749 0.516,-0.856 1.903,-0.82 2.533,0.029 0.298,0.404 0.396,0.907 0.268,1.378 z"
   id="path3"
   inkscape:connector-curvature="0" />
<g
   id="g5"
   transform="translate(0,4)">
</g>
<g
   id="g7"
   transform="translate(0,4)">
</g>
<g
   id="g9"
   transform="translate(0,4)">
</g>
<g
   id="g11"
   transform="translate(0,4)">
</g>
<g
   id="g13"
   transform="translate(0,4)">
</g>
<g
   id="g15"
   transform="translate(0,4)">
</g>
<g
   id="g17"
   transform="translate(0,4)">
</g>
<g
   id="g19"
   transform="translate(0,4)">
</g>
<g
   id="g21"
   transform="translate(0,4)">
</g>
<g
   id="g23"
   transform="translate(0,4)">
</g>
<g
   id="g25"
   transform="translate(0,4)">
</g>
<g
   id="g27"
   transform="translate(0,4)">
</g>
<g
   id="g29"
   transform="translate(0,4)">
</g>
<g
   id="g31"
   transform="translate(0,4)">
</g>
<g
   id="g33"
   transform="translate(0,4)">
</g>
</svg>