<?xml version="1.0" encoding="UTF-8" standalone="no"?>
<!-- Generator: Adobe Illustrator 16.0.0, SVG Export Plug-In . SVG Version: 6.00 Build 0)  -->

<svg
   xmlns:dc="http://purl.org/dc/elements/1.1/"
   xmlns:cc="http://creativecommons.org/ns#"
   xmlns:rdf="http://www.w3.org/1999/02/22-rdf-syntax-ns#"
   xmlns:svg="http://www.w3.org/2000/svg"
   xmlns="http://www.w3.org/2000/svg"
   xmlns:sodipodi="http://sodipodi.sourceforge.net/DTD/sodipodi-0.dtd"
   xmlns:inkscape="http://www.inkscape.org/namespaces/inkscape"
   version="1.1"
   id="Capa_1"
   x="0px"
   y="0px"
   width="100"
   height="100"
   viewBox="0 0 100 100"
   xml:space="preserve"
   inkscape:version="0.48.4 r9939"
   sodipodi:docname="thumbnail.svg"
   inkscape:export-filename="/home/roberto/Dropbox/container/public/apps/trivia/thumbnail.png"
   inkscape:export-xdpi="90"
   inkscape:export-ydpi="90"><metadata
     id="metadata39"><rdf:RDF><cc:Work
         rdf:about=""><dc:format>image/svg+xml</dc:format><dc:type
           rdf:resource="http://purl.org/dc/dcmitype/StillImage" /><dc:title></dc:title></cc:Work></rdf:RDF></metadata><defs
     id="defs37"><inkscape:perspective
       sodipodi:type="inkscape:persp3d"
       inkscape:vp_x="0 : 300 : 1"
       inkscape:vp_y="0 : 1000 : 0"
       inkscape:vp_z="1200 : 300 : 1"
       inkscape:persp3d-origin="600 : 200 : 1"
       id="perspective2449" /><inkscape:perspective
       id="perspective10"
       inkscape:persp3d-origin="372.04724 : 350.78739 : 1"
       inkscape:vp_z="744.09448 : 526.18109 : 1"
       inkscape:vp_y="0 : 1000 : 0"
       inkscape:vp_x="0 : 526.18109 : 1"
       sodipodi:type="inkscape:persp3d" /></defs><sodipodi:namedview
     pagecolor="#ffffff"
     bordercolor="#666666"
     borderopacity="1"
     objecttolerance="10"
     gridtolerance="10"
     guidetolerance="10"
     inkscape:pageopacity="0"
     inkscape:pageshadow="2"
     inkscape:window-width="1366"
     inkscape:window-height="692"
     id="namedview35"
     showgrid="false"
     inkscape:zoom="2.4583333"
     inkscape:cx="46.532996"
     inkscape:cy="85.603098"
     inkscape:window-x="0"
     inkscape:window-y="24"
     inkscape:window-maximized="1"
     inkscape:current-layer="Capa_1" /><g
     id="g5"
     transform="translate(0,4)" /><g
     id="g7"
     transform="translate(0,4)" /><g
     id="g9"
     transform="translate(0,4)" /><g
     id="g11"
     transform="translate(0,4)" /><g
     id="g13"
     transform="translate(0,4)" /><g
     id="g15"
     transform="translate(0,4)" /><g
     id="g17"
     transform="translate(0,4)" /><g
     id="g19"
     transform="translate(0,4)" /><g
     id="g21"
     transform="translate(0,4)" /><g
     id="g23"
     transform="translate(0,4)" /><g
     id="g25"
     transform="translate(0,4)" /><g
     id="g27"
     transform="translate(0,4)" /><g
     id="g29"
     transform="translate(0,4)" /><g
     id="g31"
     transform="translate(0,4)" /><g
     id="g33"
     transform="translate(0,4)" /><g
     transform="matrix(0.0188059,0,0,0.0188059,134.06093,56.219612)"
     id="layer1-3"
     inkscape:label="Calque 1"
     style="fill:#000000;fill-opacity:1"><path
       id="maple_leaf"
       d="m -4469.9953,-1987.7179 -305.6545,596.0373 c -34.6786,64.7765 -96.8183,58.7658 -158.9585,22.5831 l -221.2965,-119.7978 164.9403,915.49508 c 34.6799,167.25597 -76.5911,167.25597 -131.5231,94.9372 l -386.1775,-452.01215 -62.7001,229.54386 c -7.2268,30.14351 -39.0144,61.80384 -86.7115,54.26457 l -488.3367,-107.34762 128.2636,487.54991 c 27.4641,108.48469 48.8737,153.40151 -27.7187,182.01423 l -174.0546,85.531237 840.6365,713.912583 c 33.2704,26.99593 50.0911,75.57165 38.2367,119.55406 l -73.5748,252.43504 c 289.4471,-34.8799 548.9456,-66.1052 838.3853,-100.94587 25.7219,-0.33206 68.3668,22.52267 68.1856,53.49517 l -38.3435,924.8302 140.7261,0 -22.1561,-922.8414 c -0.1749,-30.9846 38.4985,-55.81603 64.2204,-55.48397 289.4397,34.84067 548.9384,66.06597 838.3855,100.94587 l -73.5747,-252.43504 c -11.8544,-43.98241 4.9662,-92.55813 38.2366,-119.55406 L -2719.9231,1.081017 -2893.9776,-84.45022 c -76.5925,-28.61272 -55.1828,-73.52954 -27.7188,-182.01423 l 128.2638,-487.54991 -488.3369,107.34762 c -47.6971,7.53927 -79.4847,-24.12106 -86.7116,-54.26457 l -62.7001,-229.54386 -386.1774,452.01215 c -54.9321,72.31877 -166.2031,72.31877 -131.5232,-94.9372 l 164.9401,-915.49508 -221.2962,119.7978 c -62.1431,36.1827 -124.2799,42.1934 -158.9585,-22.5831"
       style="fill:#000000;fill-opacity:1"
       inkscape:connector-curvature="0" /></g><rect
     style="opacity:0.60493828000000005;fill:#007300;fill-opacity:1"
     id="rect3027"
     width="89.898308"
     height="34.169491"
     x="5.0508461"
     y="4.9152527"
     ry="8.5423727" /><flowRoot
     xml:space="preserve"
     id="flowRoot2997"
     style="font-size:11px;font-style:normal;font-weight:normal;line-height:125%;letter-spacing:0px;word-spacing:0px;fill:#ffffff;fill-opacity:1;stroke:none;font-family:Sans"
     transform="translate(61.21875,-27.457161)"><flowRegion
       id="flowRegion2999"><rect
         id="rect3001"
         width="108.20338"
         height="28.881355"
         x="-65.491524"
         y="35.728813"
         style="font-size:11px;fill:#ffffff;fill-opacity:1" /></flowRegion><flowPara
       id="flowPara3009"
       style="font-style:normal;font-variant:normal;font-weight:bold;font-stretch:normal;text-align:center;text-anchor:middle;fill:#ffffff;fill-opacity:1;font-family:DejaVu Sans;-inkscape-font-specification:DejaVu Sans Bold">Canada</flowPara><flowPara
       style="font-style:normal;font-variant:normal;font-weight:bold;font-stretch:normal;text-align:center;text-anchor:middle;fill:#ffffff;fill-opacity:1;font-family:DejaVu Sans;-inkscape-font-specification:DejaVu Sans Bold"
       id="flowPara3005">Trivia</flowPara></flowRoot></svg>